<svg height="122" viewBox="0 0 262 122" width="262" xmlns="http://www.w3.org/2000/svg"><g fill="none" fill-rule="evenodd"><path d="m70 67h84v4h-84z" fill="#164032"/><g transform="translate(0 32)"><path d="m2.19611158 0h74.76923072c1.1045695 0 2 .8954305 2 2v15.9298246c0 1.1045695-.8954305 2-2 2h-74.76923072c-1.1045695 0-2-.8954305-2-2v-15.9298246c0-1.1045695.8954305-2 2-2zm0 26.1578947h74.76923072c1.1045695 0 2 .8954305 2 2v15.9298246c0 1.1045695-.8954305 2-2 2h-74.76923072c-1.1045695 0-2-.8954305-2-2v-15.9298246c0-1.1045695.8954305-2 2-2zm0 24.9122807h74.76923072c1.1045695 0 2 .8954305 2 2v15.9298246c0 1.1045695-.8954305 2-2 2h-74.76923072c-1.1045695 0-2-.8954305-2-2v-15.9298246c0-1.1045695.8954305-2 2-2z" fill="#164032"/><path d="m5.39124474 4.09828043h4.92307696v4.98245614h-4.92307696zm8.61538466 0h4.9230769v4.98245614h-4.9230769zm8.6153846 0h4.9230769v4.98245614h-4.9230769z" fill="#c8d7fa"/></g><g transform="translate(115)"><path d="m2.15625 102.022124h128c1.104569 0 2-.895431 2-2v-98.00000011c0-1.1045695-.895431-2-2-2h-128c-1.1045695 0-2 .8954305-2 2v98.00000011c0 1.104569.8954305 2 2 2z" fill="#3eb38c"/><g fill="#164032" transform="translate(6 5)"><path d="m8.01257798 4.06285491c0 2.20915798-1.79047843 4-3.99976577 4-2.20928735 0-4.00023423-1.79084202-4.00023423-4s1.79094688-4 4.00023423-4c2.20928734 0 3.99976577 1.79084202 3.99976577 4"/><path d="m21.1095825 4.06285491c0 2.20915798-1.7909469 4-4.0002342 4-2.2092874 0-3.9997658-1.79084202-3.9997658-4s1.7904784-4 3.9997658-4c2.2092873 0 4.0002342 1.79084202 4.0002342 4"/><path d="m34.2061339 4.06285491c0 2.20915798-1.7909469 4-4.0002342 4-2.2088189 0-3.9997658-1.79084202-3.9997658-4s1.7909469-4 3.9997658-4c2.2092873 0 4.0002342 1.79084202 4.0002342 4"/></g></g><path d="m70 40h84v4h-84z" fill="#164032"/><g transform="translate(129 19)"><path d="m2.15625 102.022124h128c1.104569 0 2-.895431 2-2v-98.00000011c0-1.1045695-.895431-2-2-2h-128c-1.1045695 0-2 .8954305-2 2v98.00000011c0 1.104569.8954305 2 2 2z" fill="#91f2d2"/><g fill="#164032" transform="translate(6 5)"><path d="m8.01257798 4.06285491c0 2.20915798-1.79047843 4-3.99976577 4-2.20928735 0-4.00023423-1.79084202-4.00023423-4s1.79094688-4 4.00023423-4c2.20928734 0 3.99976577 1.79084202 3.99976577 4"/><path d="m21.1095825 4.06285491c0 2.20915798-1.7909469 4-4.0002342 4-2.2092874 0-3.9997658-1.79084202-3.9997658-4s1.7904784-4 3.9997658-4c2.2092873 0 4.0002342 1.79084202 4.0002342 4"/><path d="m34.2061339 4.06285491c0 2.20915798-1.7909469 4-4.0002342 4-2.2088189 0-3.9997658-1.79084202-3.9997658-4s1.7909469-4 3.9997658-4c2.2092873 0 4.0002342 1.79084202 4.0002342 4"/></g></g></g></svg>