<?xml version="1.0" encoding="UTF-8"?>
<svg width="209px" height="156px" viewBox="0 0 209 156" version="1.1" xmlns="http://www.w3.org/2000/svg" xmlns:xlink="http://www.w3.org/1999/xlink">
    <!-- Generator: Sketch 54.1 (76490) - https://sketchapp.com -->
    <title>Group 27</title>
    <desc>Created with Sketch.</desc>
    <g id="Skill-Paths" stroke="none" stroke-width="1" fill="none" fill-rule="evenodd">
        <g id="create-interactive-website-w-react" transform="translate(-63.000000, -44.000000)">
            <g id="BAR-Copy-2">
                <g id="Group-27" transform="translate(63.000000, 43.312500)">
                    <g id="Group-13">
                        <path d="M2,125.46875 L206.3125,125.46875 C207.417069,125.46875 208.3125,124.573319 208.3125,123.46875 L208.3125,2.6875 C208.3125,1.5829305 207.417069,0.6875 206.3125,0.6875 L2,0.6875 C0.8954305,0.6875 -1.3527075e-16,1.5829305 0,2.6875 L0,123.46875 C1.3527075e-16,124.573319 0.8954305,125.46875 2,125.46875 Z" id="Combined-Shape-Copy-3" fill="#164032"></path>
                        <path d="M13.0694149,9.69452333 C13.0694149,11.9036813 11.2789365,13.6945233 9.06964917,13.6945233 C6.86036183,13.6945233 5.06941494,11.9036813 5.06941494,9.69452333 C5.06941494,7.48536535 6.86036183,5.69452333 9.06964917,5.69452333 C11.2789365,5.69452333 13.0694149,7.48536535 13.0694149,9.69452333" id="Fill-9-Copy-2" fill="#BBFAE5"></path>
                        <path d="M26.3543249,9.69452333 C26.3543249,11.9036813 24.563378,13.6945233 22.3540906,13.6945233 C20.1448033,13.6945233 18.3543249,11.9036813 18.3543249,9.69452333 C18.3543249,7.48536535 20.1448033,5.69452333 22.3540906,5.69452333 C24.563378,5.69452333 26.3543249,7.48536535 26.3543249,9.69452333" id="Fill-11-Copy-2" fill="#BBFAE5"></path>
                        <path d="M39.6387751,9.69452333 C39.6387751,11.9036813 37.8478282,13.6945233 35.6385409,13.6945233 C33.429722,13.6945233 31.6387751,11.9036813 31.6387751,9.69452333 C31.6387751,7.48536535 33.429722,5.69452333 35.6385409,5.69452333 C37.8478282,5.69452333 39.6387751,7.48536535 39.6387751,9.69452333" id="Fill-13-Copy-2" fill="#BBFAE5"></path>
                    </g>
                    <g id="Group-2" transform="translate(55.000000, 31.687500)">
                        <path d="M2.15625,124.769912 L130.15625,124.769912 C131.260819,124.769912 132.15625,123.874481 132.15625,122.769912 L132.15625,2.02212389 C132.15625,0.917554394 131.260819,0.0221238938 130.15625,0.0221238938 L2.15625,0.0221238938 C1.0516805,0.0221238938 0.15625,0.917554394 0.15625,2.02212389 L0.15625,122.769912 C0.15625,123.874481 1.0516805,124.769912 2.15625,124.769912 Z" id="Fill-1-Copy-2" fill="#BBFAE5"></path>
                        <g id="Group" transform="translate(5.000000, 4.000000)" fill="#164032">
                            <path d="M8.01257798,4.06285491 C8.01257798,6.27201289 6.22209955,8.06285491 4.01281221,8.06285491 C1.80352486,8.06285491 0.0125779762,6.27201289 0.0125779762,4.06285491 C0.0125779762,1.85369693 1.80352486,0.0628549124 4.01281221,0.0628549124 C6.22209955,0.0628549124 8.01257798,1.85369693 8.01257798,4.06285491" id="Fill-9-Copy"></path>
                            <path d="M21.1095825,4.06285491 C21.1095825,6.27201289 19.3186356,8.06285491 17.1093483,8.06285491 C14.9000609,8.06285491 13.1095825,6.27201289 13.1095825,4.06285491 C13.1095825,1.85369693 14.9000609,0.0628549124 17.1093483,0.0628549124 C19.3186356,0.0628549124 21.1095825,1.85369693 21.1095825,4.06285491" id="Fill-11-Copy"></path>
                            <path d="M34.2061339,4.06285491 C34.2061339,6.27201289 32.415187,8.06285491 30.2058997,8.06285491 C27.9970808,8.06285491 26.2061339,6.27201289 26.2061339,4.06285491 C26.2061339,1.85369693 27.9970808,0.0628549124 30.2058997,0.0628549124 C32.415187,0.0628549124 34.2061339,1.85369693 34.2061339,4.06285491" id="Fill-13-Copy"></path>
                        </g>
                    </g>
                    <path d="M36,69.6875 L55,69.6875 L55,73.6875 L36,73.6875 L36,79.6875 C36,80.7920695 35.1045695,81.6875 34,81.6875 L19,81.6875 C17.8954305,81.6875 17,80.7920695 17,79.6875 L17,64.6875 C17,63.5829305 17.8954305,62.6875 19,62.6875 L34,62.6875 C35.1045695,62.6875 36,63.5829305 36,64.6875 L36,69.6875 Z" id="Combined-Shape" fill="#47CCA0"></path>
                    <path d="M126,89.6875 L126,72.6875 C126,71.5829305 126.895431,70.6875 128,70.6875 L165,70.6875 C166.104569,70.6875 167,71.5829305 167,72.6875 L167,109.6875 C167,110.792069 166.104569,111.6875 165,111.6875 L128,111.6875 C126.895431,111.6875 126,110.792069 126,109.6875 L126,93.6875 L55,93.6875 L55,89.6875 L126,89.6875 Z" id="Combined-Shape" fill="#3EB38C"></path>
                </g>
            </g>
        </g>
    </g>
</svg>