<?xml version="1.0" encoding="UTF-8"?>
<svg width="330px" height="226px" viewBox="0 0 330 226" version="1.1" xmlns="http://www.w3.org/2000/svg" xmlns:xlink="http://www.w3.org/1999/xlink">
    <!-- Generator: Sketch 59.1 (86144) - https://sketch.com -->
    <title>phaser skill path v2</title>
    <desc>Created with Sketch.</desc>
    <g id="phaser-skill-path-v2" stroke="none" stroke-width="1" fill="none" fill-rule="evenodd">
        <g id="Web-APIs" fill="#47CCA0">
            <rect id="Rectangle-Copy-2" x="0" y="0" width="330" height="226"></rect>
        </g>
        <rect id="Rectangle" fill="#318C6E" x="98" y="36" width="188" height="136" rx="2"></rect>
        <rect id="Rectangle-Copy-3" fill="#BBFAE5" x="114" y="55" width="188" height="136" rx="2"></rect>
        <rect id="Rectangle" fill="#47CCA0" x="120" y="157" width="176" height="28"></rect>
        <rect id="Rectangle-Copy-5" fill="#47CCA0" x="120" y="129" width="50" height="12"></rect>
        <rect id="Rectangle-Copy-6" fill="#47CCA0" x="183" y="114" width="50" height="12"></rect>
        <rect id="Rectangle-Copy-7" fill="#47CCA0" x="246" y="98" width="50" height="12"></rect>
        <path d="M63,50 L133,50 C152.329966,50 168,65.6700338 168,85 C168,104.329966 152.329966,120 133,120 C121.54968,120 111.383599,114.501515 104.998113,106.000901 L91.0018865,106.000901 C84.6164007,114.501515 74.4503203,120 63,120 C43.6700338,120 28,104.329966 28,85 C28,65.8633334 43.3582001,50.3137667 62.421211,50.004689 L63,50 L133,50 Z M133,92 C131.067003,92 129.5,93.5670034 129.5,95.5 C129.5,97.4329966 131.067003,99 133,99 C134.932997,99 136.5,97.4329966 136.5,95.5 C136.5,93.5670034 134.932997,92 133,92 Z M143.5,81.5 C141.567003,81.5 140,83.0670034 140,85 C140,86.9329966 141.567003,88.5 143.5,88.5 C145.432997,88.5 147,86.9329966 147,85 C147,83.0670034 145.432997,81.5 143.5,81.5 Z M122.5,81.5 C120.567003,81.5 119,83.0670034 119,85 C119,86.9329966 120.567003,88.5 122.5,88.5 C124.432997,88.5 126,86.9329966 126,85 C126,83.0670034 124.432997,81.5 122.5,81.5 Z M133,71 C131.067003,71 129.5,72.5670034 129.5,74.5 C129.5,76.4329966 131.067003,78 133,78 C134.932997,78 136.5,76.4329966 136.5,74.5 C136.5,72.5670034 134.932997,71 133,71 Z" id="Combined-Shape" fill="#164032"></path>
        <path d="M64.5,71 C65.6045695,71 66.5,71.8954305 66.5,73 L66.499,81.499 L75,81.5 C76.1045695,81.5 77,82.3954305 77,83.5 L77,86.5 C77,87.6045695 76.1045695,88.5 75,88.5 L66.499,88.499 L66.5,97 C66.5,98.1045695 65.6045695,99 64.5,99 L61.5,99 C60.3954305,99 59.5,98.1045695 59.5,97 L59.499,88.499 L51,88.5 C49.8954305,88.5 49,87.6045695 49,86.5 L49,83.5 C49,82.3954305 49.8954305,81.5 51,81.5 L59.499,81.499 L59.5,73 C59.5,71.8954305 60.3954305,71 61.5,71 L64.5,71 Z" id="Combined-Shape" fill="#BBFAE5"></path>
        <rect id="Rectangle" fill="#47CCA0" x="201" y="76" width="14" height="14"></rect>
    </g>
</svg>