<?xml version="1.0" encoding="UTF-8"?>
<svg width="143px" height="142px" viewBox="0 0 143 142" version="1.1" xmlns="http://www.w3.org/2000/svg" xmlns:xlink="http://www.w3.org/1999/xlink">
    <!-- Generator: Sketch 54.1 (76490) - https://sketchapp.com -->
    <title>Group 36</title>
    <desc>Created with Sketch.</desc>
    <defs>
        <path d="M53.9944744,4.00000068 C53.9963162,4.00000023 53.9981581,4 54,4 L54,0 C42.576042,0 33.01632,7.98174298 30.5933362,18.6727266 C30.4150579,19.4593481 30.2754158,20.2606366 30.1765104,21.074492 C30.1765104,21.074492 30.1765104,21.074492 30.1765104,21.074492 C30.2754158,20.2606366 30.4150579,19.4593481 30.5933362,18.6727266 C33.01632,7.98174298 42.576042,0 54,0 L54,4 C66.1502645,4 76,13.8497355 76,26 C76,26.3254625 75.9929327,26.6492744 75.9789431,26.9712904 L76.1606445,101.633789 L75.9818077,123.097066 C75.9938971,123.396541 76,123.697558 76,124 C76,136.150264 66.1502645,146 54,146 C44.286425,146 36.0431786,139.704774 33.1275432,130.971605 C32.7540756,130.990459 32.378152,131 32,131 C19.8497355,131 10,121.150264 10,109 C10,103.634794 11.9205515,98.7181562 15.1116694,94.9000727 C6.33527223,92.0091621 0,83.7444221 0,74 C0,65.088161 5.29892496,57.4139522 12.9179422,53.9562063 C11.0616998,50.7302157 10,46.9890945 10,43 C10,31.4637655 18.8793516,22.0014147 30.1765104,21.074492 C30.0599817,22.033362 30,23.0096763 30,24 C30,37.254834 40.745166,48 54,48 L54,44 C42.954305,44 34,35.045695 34,24 C34,22.4885524 34.1669459,21.0016984 34.494402,19.5568566 C36.5411715,10.5258514 44.6074227,4.00255975 53.9944744,4.00000075 Z M53.9944744,4.00000068 C53.9944744,4.00000068 53.9944744,4.00000068 53.9944744,4.00000068 Z" id="path-1"></path>
    </defs>
    <g id="Skill-Paths" stroke="none" stroke-width="1" fill="none" fill-rule="evenodd">
        <g id="Intro-to-Machine-Learning" transform="translate(-94.000000, -44.000000)">
            <g id="Group-36" transform="translate(94.000000, 40.000000)">
                <rect id="Rectangle-Copy-23" fill="#2F1A5F" x="76" y="44" width="50" height="4"></rect>
                <rect id="Rectangle-Copy-26" fill="#2F1A5F" x="76" y="24" width="31" height="4"></rect>
                <rect id="Rectangle-Copy-29" fill="#2F1A5F" x="76" y="122" width="31" height="4"></rect>
                <rect id="Rectangle-Copy-24" fill="#2F1A5F" x="76" y="73" width="61" height="4"></rect>
                <circle id="Oval-Copy-20" fill="#AC9DF2" cx="128" cy="46" r="6"></circle>
                <circle id="Oval-Copy-32" fill="#AC9DF2" cx="107" cy="26" r="6"></circle>
                <circle id="Oval-Copy-33" fill="#AC9DF2" cx="107" cy="124" r="6"></circle>
                <circle id="Oval-Copy-22" fill="#AC9DF2" cx="137" cy="75" r="6"></circle>
                <rect id="Rectangle-Copy-25" fill="#2F1A5F" x="76" y="102" width="52" height="4"></rect>
                <circle id="Oval-Copy-25" fill="#AC9DF2" cx="128" cy="104" r="6"></circle>
                <g id="Group-35">
                    <mask id="mask-2" fill="white">
                        <use xlink:href="#path-1"></use>
                    </mask>
                    <use id="Combined-Shape" fill="#C0B6F2" xlink:href="#path-1"></use>
                    <rect id="Rectangle-Copy-27" fill="#6437CC" mask="url(#mask-2)" x="52" y="44" width="24" height="4"></rect>
                    <rect id="Rectangle-Copy-28" fill="#6437CC" mask="url(#mask-2)" x="52" y="102" width="25" height="4"></rect>
                    <rect id="Rectangle-Copy-30" fill="#6437CC" mask="url(#mask-2)" x="45" y="73" width="32" height="4"></rect>
                    <path d="M30,61 L30,65 C16.745166,65 6,54.254834 6,41 C6,39.169124 6.20501347,37.3861315 6.59333622,35.6727266 C9.01631996,24.981743 18.576042,17 30,17 L30,21 C20.6105882,21 12.541573,27.5240794 10.494402,36.5568566 C10.1669459,38.0016984 10,39.4885524 10,41 C10,52.045695 18.954305,61 30,61 Z M30,61 L30,65 C16.745166,65 6,54.254834 6,41 C6,39.169124 6.20501347,37.3861315 6.59333622,35.6727266 C9.01631996,24.981743 18.576042,17 30,17 L30,21 C20.6105882,21 12.541573,27.5240794 10.494402,36.5568566 C10.1669459,38.0016984 10,39.4885524 10,41 C10,52.045695 18.954305,61 30,61 Z" id="Path-Copy-5" fill="#6437CC" fill-rule="nonzero" mask="url(#mask-2)"></path>
                    <path d="M30,131 L30,135 C16.745166,135 6,124.254834 6,111 C6,109.169124 6.20501347,107.386131 6.59333622,105.672727 C9.01631996,94.981743 18.576042,87 30,87 L30,91 C20.6105882,91 12.541573,97.5240794 10.494402,106.556857 C10.1669459,108.001698 10,109.488552 10,111 C10,122.045695 18.954305,131 30,131 Z M30,131 L30,135 C16.745166,135 6,124.254834 6,111 C6,109.169124 6.20501347,107.386131 6.59333622,105.672727 C9.01631996,94.981743 18.576042,87 30,87 L30,91 C20.6105882,91 12.541573,97.5240794 10.494402,106.556857 C10.1669459,108.001698 10,109.488552 10,111 C10,122.045695 18.954305,131 30,131 Z" id="Path-Copy-6" fill="#6437CC" fill-rule="nonzero" mask="url(#mask-2)"></path>
                    <path d="M53,146 L53,150 C39.745166,150 29,139.254834 29,126 C29,124.169124 29.2050135,122.386131 29.5933362,120.672727 C32.01632,109.981743 41.576042,102 53,102 L53,106 C43.6105882,106 35.541573,112.524079 33.494402,121.556857 C33.1669459,123.001698 33,124.488552 33,126 C33,137.045695 41.954305,146 53,146 Z" id="Path-Copy-3" fill="#6437CC" fill-rule="nonzero" mask="url(#mask-2)"></path>
                    <circle id="Combined-Shape" fill="#6437CC" mask="url(#mask-2)" cx="44" cy="75" r="6"></circle>
                    <path d="M62.6585886,24 L76,24 L76,28 L62.6585886,28 C61.8349158,30.3303847 59.6124377,32 57,32 C53.6862915,32 51,29.3137085 51,26 C51,22.6862915 53.6862915,20 57,20 C59.6124377,20 61.8349158,21.6696153 62.6585886,24 Z" id="Combined-Shape" fill="#6437CC" mask="url(#mask-2)"></path>
                    <path d="M63.6585886,122 L76,122 L76,126 L63.6585886,126 C62.8349158,128.330385 60.6124377,130 58,130 C54.6862915,130 52,127.313708 52,124 C52,120.686292 54.6862915,118 58,118 C60.6124377,118 62.8349158,119.669615 63.6585886,122 Z" id="Combined-Shape" fill="#6437CC" mask="url(#mask-2)"></path>
                </g>
            </g>
        </g>
    </g>
</svg>