<?xml version="1.0" encoding="UTF-8"?>
<svg width="243px" height="126px" viewBox="0 0 243 126" version="1.1" xmlns="http://www.w3.org/2000/svg" xmlns:xlink="http://www.w3.org/1999/xlink">
    <!-- Generator: Sketch 54.1 (76490) - https://sketchapp.com -->
    <title>BWS</title>
    <desc>Created with Sketch.</desc>
    <g id="Skill-Paths" stroke="none" stroke-width="1" fill="none" fill-rule="evenodd">
        <g id="Learn-how-to-build-wevbsite" transform="translate(-32.000000, -43.000000)">
            <g id="BWS" transform="translate(32.000000, 43.312500)">
                <path d="M35.75,124.78125 L242.0625,124.78125 L242.0625,0 L33.75,0 L33.75,122.78125 C33.75,123.885819 34.6454305,124.78125 35.75,124.78125 Z" id="Combined-Shape" fill="#A5BEFA"></path>
                <path d="M47,8.6875 C47,10.896658 45.2095216,12.6875 43.0002342,12.6875 C40.7909469,12.6875 39,10.896658 39,8.6875 C39,6.47834202 40.7909469,4.6875 43.0002342,4.6875 C45.2095216,4.6875 47,6.47834202 47,8.6875" id="Fill-9" fill="#141C3A"></path>
                <path d="M59,8.6875 C59,10.896658 57.2090531,12.6875 54.9997658,12.6875 C52.7904784,12.6875 51,10.896658 51,8.6875 C51,6.47834202 52.7904784,4.6875 54.9997658,4.6875 C57.2090531,4.6875 59,6.47834202 59,8.6875" id="Fill-11" fill="#141C3A"></path>
                <path d="M71,8.6875 C71,10.896658 69.2090531,12.6875 66.9997658,12.6875 C64.7909469,12.6875 63,10.896658 63,8.6875 C63,6.47834202 64.7909469,4.6875 66.9997658,4.6875 C69.2090531,4.6875 71,6.47834202 71,8.6875" id="Fill-13" fill="#141C3A"></path>
                <rect id="Combined-Shape" fill="#141E3B" x="0.46875" y="23.6875" width="103" height="82" rx="2"></rect>
                <path d="M56,84.6875 L17,84.6875 L39,40.6875 L58.5,79.6875 L70.5,55.6875 L85,84.6875 L56,84.6875 Z" id="Combined-Shape" fill="#3069F0"></path>
                <g id="Group" transform="translate(138.000000, 37.687500)" fill="#141E3B">
                    <path d="M7.10542736e-15,-4.4408921e-15 L79.8806598,-4.4408921e-15 L79.8806598,8.57341328 L7.10542736e-15,8.57341328 L7.10542736e-15,-4.4408921e-15 Z M-7.10542736e-15,17.53125 L79.8806598,17.53125 L79.8806598,26.1046633 L-7.10542736e-15,26.1046633 L-7.10542736e-15,17.53125 Z M7.10542736e-15,35.0625 L79.8806598,35.0625 L79.8806598,43.6359133 L7.10542736e-15,43.6359133 L7.10542736e-15,35.0625 Z" id="Combined-Shape"></path>
                </g>
            </g>
        </g>
    </g>
</svg>